# AST/ASF file generated using VICON BodyLanguage
# -----------------------------------------------
:version 1.10
:name VICON
:units
  mass 1.0
  length 0.45
  angle deg
:documentation
   .ast/.asf automatically generated from VICON data using
   VICON BodyBuilder and BodyLanguage model FoxedUp or BRILLIANT.MOD
:root
   order TX TY TZ RX RY RZ
   axis XYZ
   position 0 0 0  
   orientation 0 0 0 
:bonedata
  begin
     id 1 
     name lhipjoint
     direction 0.440178 -0.822639 0.359871 
     length 2.53113 
     axis 0 0 0  XYZ
  end
  begin
     id 2 
     name lfemur
     direction 0.34202 -0.939693 0  
     length 7.88132  
     axis 0 0 20  XYZ
    dof rx ry rz
    limits (-160.0 20.0)
           (-70.0 70.0)
           (-60.0 70.0)
  end
  begin
     id 3 
     name ltibia
     direction 0.34202 -0.939693 0   
     length 8.43783   
     axis 0 0 20   XYZ
    dof rx
    limits (-10.0 170.0)
  end
  begin
     id 4 
     name lfoot
     direction 0.0886351 -0.243523 0.965837   
     length 2.63414   
     axis -90 7.62852e-016 20   XYZ
    dof rx rz
    limits (-45.0 90.0)
           (-70.0 20.0)
  end
  begin
     id 5 
     name ltoes
     direction 1.53703e-011 -4.21717e-011 1   
     length 1.31427   
     axis -90 7.62852e-016 20   XYZ
    dof rx
    limits (-90.0 20.0)
  end
  begin
     id 6 
     name rhipjoint
     direction -0.399779 -0.839773 0.367367   
     length 2.47948  
     axis 0 0 0  XYZ 
  end
  begin
     id 7 
     name rfemur
     direction -0.34202 -0.939693 0   
     length 7.74806   
     axis 0 0 -20   XYZ
    dof rx ry rz
    limits (-160.0 20.0)
           (-70.0 70.0)
           (-70.0 60.0)
  end
  begin
     id 8 
     name rtibia
     direction -0.34202 -0.939693 0   
     length 8.74432   
     axis 0 0 -20   XYZ
    dof rx
    limits (-10.0 170.0)
 end
 begin
     id 9 
     name rfoot
     direction -0.108514 -0.298139 0.948334   
     length 2.66102  
     axis -90 -7.62852e-016 -20   XYZ
    dof rx rz
    limits (-45.0 90.0)
           (-20.0 70.0)
  end
  begin
     id 10 
     name rtoes
     direction -1.53392e-011 -4.22077e-011 1   
     length 1.31983   
     axis -90 -7.62852e-016 -20   XYZ
    dof rx
    limits (-90.0 20.0)
  end
  begin
     id 11 
     name lowerback
     direction 0.0113257 0.999866 0.0118602   
     length 2.58694   
     axis 0 0 0   XYZ
    dof rx ry rz
    limits (-20.0 45.0)
           (-30.0 30.0)
           (-30.0 30.0)
  end
  begin
     id 12 
     name upperback
     direction -0.0164747 0.995193 -0.0965375   
     length 2.52368   
     axis 0 0 0   XYZ
    dof rx ry rz
    limits (-20.0 45.0)
           (-30.0 30.0)
           (-30.0 30.0)
  end
  begin
     id 13 
     name thorax
     direction -0.0194301 0.99433 -0.104552   
     length 2.56099   
     axis 0 0 0   XYZ
    dof rx ry rz
    limits (-20.0 45.0)
           (-30.0 30.0)
           (-30.0 30.0)
  end
  begin
     id 14 
     name lowerneck
     direction 0.0148543 0.995587 -0.092657   
     length 1.71582   
     axis 0 0 0   XYZ
    dof rx ry rz
    limits (-20.0 45.0)
           (-30.0 30.0)
           (-30.0 30.0)
  end
  begin
     id 15 
     name upperneck
     direction -0.0135467 0.993656 -0.111639   
     length 1.68937   
     axis 0 0 0   XYZ
    dof rx ry rz
    limits (-20.0 45.0)
           (-30.0 30.0)
           (-30.0 30.0)
  end
  begin
     id 16
     name head
     direction -0.00615349 0.999547 -0.029448  
     length 1.7462  
     axis 0 0 0   XYZ
    dof rx ry rz
    limits (-20.0 45.0)
           (-30.0 30.0)
           (-30.0 30.0)
  end
  begin
     id 17 
     name lclavicle
     direction 0.988267 0.149885 0.0293713  
     length 4.47222  
     axis 0 0 0   XYZ
    dof ry rz
    limits (-20.0 10.0)
           (0.0 20.0)
  end
  begin
     id 18 
     name lhumerus
     direction 1 -4.48986e-011 -1.14833e-027   
     length 5.37148   
     axis 180 -30 -90   XYZ
    dof rx ry rz
    limits (-60.0 90.0)
           (-90.0 90.0)
           (-90.0 90.0)
  end
  begin
     id 19
     name lradius
     direction 0.999998 0.00170963 -0.000987055   
     length 3.94212   
     axis 180 -30 -90   XYZ
    dof rx
    limits (-10.0 170.0)
  end
  begin
     id 20
     name lwrist
     direction 0.999998 7.53149e-005 -0.00194706   
     length 1.97106   
     axis 4.65056e-015 90 90   XYZ
    dof ry
    limits (-180.0 0.0)
 end
  begin
     id 21 
     name lhand
     direction 1 -4.48973e-011 -1.31746e-026   
     length 1.17917   
     axis 8.4065e-015 90 90   XYZ
    dof rx rz
    limits (-90.0 90.0)
           (-45.0 45.0)
  end
  begin
     id 22 
     name lfingers
     direction 1 -4.49107e-011 -2.63492e-026   
     length 0.950679   
     axis 1.6813e-014 90 90   XYZ
    dof rx
    limits (0.0 90.0)
  end
  begin
     id 23
     name lthumb
     direction 0.707107 -6.35048e-011 0.707107   
     length 1.36499   
     axis -90 45 2.85299e-015   XYZ
    dof rx rz
    limits (-45.0 45.0)
           (-45.0 45.0)
  end
  begin
     id 24 
     name rclavicle
     direction -0.996699 0.0642895 -0.0495725   
     length 4.62611  
     axis 0 0 0   XYZ 
    dof ry rz
    limits (-10.0 20.0)
           (-20.0 0.0)
  end
  begin
     id 25 
     name rhumerus
     direction -1 -4.48919e-011 -2.41059e-027  
     length 5.4981   
     axis 180 30 90   XYZ
    dof rx ry rz
    limits (-90.0 60.0)
           (-90.0 90.0)
           (-90.0 90.0)
  end
  begin
     id 26 
     name rradius
     direction -0.999999 0.00118101 -0.000681858   
     length 3.48381   
     axis 180 30 90   XYZ
    dof rx
    limits (-10.0 170.0)
  end
  begin
     id 27 
     name rwrist
     direction -0.999999 0.000321823 -0.00132288   
     length 1.7419   
     axis 4.65056e-015 -90 -90   XYZ
    dof ry
    limits (-180.0 0.0)
  end
  begin
     id 28
     name rhand
     direction -1 -4.49022e-011 -1.31746e-026   
     length 1.34932   
     axis 8.4065e-015 -90 -90   XYZ
    dof rx rz
    limits (-90.0 90.0)
           (-45.0 45.0)
  end
  begin
     id 29
     name rfingers
     direction -1 -4.49178e-011 -2.63492e-026   
     length 1.08785   
     axis 1.6813e-014 -90 -90   XYZ
    dof rx
    limits (0.0 90.0)
  end
  begin
     id 30
     name rthumb
     direction -0.707107 -6.34713e-011 0.707107   
     length 1.56195   
     axis -90 -45 -2.85299e-015   XYZ
    dof rx rz
    limits (-45.0 45.0)
           (-45.0 45.0)
  end
:hierarchy
  begin
    root lhipjoint rhipjoint lowerback
    lhipjoint lfemur
    lfemur ltibia
    ltibia lfoot
    lfoot ltoes
    rhipjoint rfemur
    rfemur rtibia
    rtibia rfoot
    rfoot rtoes
    lowerback upperback
    upperback thorax
    thorax lowerneck lclavicle rclavicle
    lowerneck upperneck
    upperneck head
    lclavicle lhumerus
    lhumerus lradius
    lradius lwrist
    lwrist lhand lthumb
    lhand lfingers
    rclavicle rhumerus
    rhumerus rradius
    rradius rwrist
    rwrist rhand rthumb
    rhand rfingers
  end

#!OML:ASF X:\für Bonn\!DataBase\2005_08_10_Bjorn_Final\c3d\bjorn.ASF
:FULLY-SPECIFIED
:DEGREES
1
root 2.05276 19.1487 15.7788 -185.395 -47.4102 -536.185
lowerback 14.5486 2.4851 0.808619
upperback 17.5492 0.422897 3.28558
thorax 11.0878 -1.0571 2.91491
lowerneck 0.680552 -2.21812 5.6279
upperneck 26.5183 -5.65128 0.586185
head 7.99167 -2.6845 -1.20873
rclavicle -6.55989e-014 7.79236e-014
rhumerus -14.8315 -15.6299 -84.6845
rradius 35.9812
rwrist 10.8229
rhand -14.2536 11.2941
rfingers 7.12502
rthumb 11.8846 -18.3486
lclavicle -6.55989e-014 7.79236e-014
lhumerus -26.1002 -6.92749 89.9775
lradius 24.5882
lwrist -17.9586
lhand -14.6308 -369.143
lfingers 7.12502
lthumb 11.5208 20.5204
rfemur -5.47664 -6.07284 19.9734
rtibia 26.8039
rfoot -0.160305 36.4741
rtoes 16.1217
lfemur -17.4735 -20.9788 -4.07873
ltibia 25.3012
lfoot -6.91779 -11.4094
ltoes -17.008
2
root 2.00614 19.1451 15.7974 -185.332 -46.5628 -536.083
lowerback 14.8012 2.58136 0.298672
upperback 17.6482 0.461497 3.21707
thorax 11.0558 -1.11775 3.11797
lowerneck 0.655 -2.27174 5.59763
upperneck 26.4977 -5.91839 1.24616
head 8.01235 -2.76685 -1.00334
rclavicle -9.54166e-014 5.08889e-014
rhumerus -14.837 -15.4915 -84.8015
rradius 36.0433
rwrist 10.8585
rhand -14.3102 11.2234
rfingers 7.12502
rthumb 11.83 -18.4225
lclavicle -9.54166e-014 5.08889e-014
lhumerus -25.93 -7.34021 89.8675
lradius 24.8435
lwrist -17.4866
lhand -14.7674 -369.01
lfingers 7.12502
lthumb 11.389 20.6606
rfemur -5.63765 -5.58883 19.9849
rtibia 26.8654
rfoot 0.158318 36.8608
rtoes 16.2849
lfemur -17.3443 -20.3715 -3.92501
ltibia 24.6048
lfoot -6.22882 -11.1754
ltoes -16.5273
3
root 1.96007 19.14 15.8164 -185.328 -45.7269 -535.936
lowerback 15.0994 2.6639 -0.196751
upperback 17.7399 0.477557 3.15176
thorax 10.9929 -1.18922 3.31734
lowerneck 0.671555 -2.32239 5.57388
upperneck 26.4475 -6.17404 1.88317
head 8.01637 -2.84765 -0.804648
rclavicle -2.18663e-015 3.37934e-015
rhumerus -14.8873 -15.2214 -84.8967
rradius 36.1238
rwrist 10.7957
rhand -14.3916 11.1631
rfingers 7.12502
rthumb 11.7515 -18.4873
lclavicle -2.18663e-015 3.37934e-015
lhumerus -25.7903 -7.81798 89.7698
lradius 25.1316
lwrist -16.9121
lhand -14.9106 -368.75
lfingers 7.12502
lthumb 11.251 20.9283
rfemur -5.77903 -5.08291 20.0346
rtibia 26.9328
rfoot 0.426548 37.2151
rtoes 16.3527
lfemur -17.1542 -19.6746 -3.7852
ltibia 24.0034
lfoot -5.59079 -10.9109
ltoes -15.8472
4
root 1.91409 19.134 15.8353 -185.503 -44.8719 -535.608
lowerback 15.4352 2.73798 -0.615373
upperback 17.8449 0.468886 3.14638
thorax 10.9321 -1.27433 3.54087
lowerneck 0.754239 -2.34822 5.39225
upperneck 26.3554 -6.40111 2.6145
head 8.00313 -2.92541 -0.544514
rclavicle 3.63776e-014 -1.63003e-014
rhumerus -14.8959 -14.8231 -84.931
rradius 36.1626
rwrist 10.6357
rhand -14.3629 11.0898
rfingers 7.12502
rthumb 11.7791 -18.559
lclavicle 3.63776e-014 -1.63003e-014
lhumerus -25.6628 -8.09203 89.6698
lradius 25.468
lwrist -16.4032
lhand -14.8988 -368.488
lfingers 7.12502
lthumb 11.2623 21.1901
rfemur -5.85323 -4.50882 20.2284
rtibia 26.9901
rfoot 0.773626 37.497
rtoes 16.6391
lfemur -16.8843 -18.8897 -3.55432
ltibia 23.5281
lfoot -5.03303 -10.6648
ltoes -15.2285
5
root 1.86813 19.1272 15.8542 -185.685 -44.0197 -535.286
lowerback 15.7933 2.79656 -1.05655
upperback 17.9479 0.432616 3.12635
thorax 10.8605 -1.37591 3.7629
lowerneck 0.848951 -2.3475 5.18187
upperneck 26.2748 -6.59252 3.33634
head 7.99371 -2.9921 -0.280925
rclavicle 4.77083e-014 3.97569e-016
rhumerus -14.9153 -14.3617 -84.9942
rradius 36.1935
rwrist 10.4421
rhand -14.3235 11.0906
rfingers 7.12502
rthumb 11.8171 -18.556
lclavicle 4.77083e-014 3.97569e-016
lhumerus -25.591 -8.45103 89.5563
lradius 25.8533
lwrist -15.8307
lhand -14.942 -368.185
lfingers 7.12502
lthumb 11.2207 21.495
rfemur -5.91615 -3.85837 20.4342
rtibia 27.0453
rfoot 1.11135 37.6687
rtoes 16.9821
lfemur -16.5727 -18.0426 -3.36873
ltibia 23.1662
lfoot -4.69512 -10.395
ltoes -15.7088
6
root 1.82208 19.1214 15.8726 -185.846 -43.174 -534.97
lowerback 16.1341 2.86354 -1.49898
upperback 18.0449 0.40744 3.08935
thorax 10.792 -1.4698 3.96697
lowerneck 0.998876 -2.34727 4.98503
upperneck 26.1548 -6.79034 4.09759
head 7.96395 -3.06171 -0.00529386
rclavicle 2.82274e-014 -2.12203e-014
rhumerus -14.956 -13.9527 -85.0587
rradius 36.2408
rwrist 10.2554
rhand -14.2125 11.0443
rfingers 7.12502
rthumb 11.9242 -18.5962
lclavicle 2.82274e-014 -2.12203e-014
lhumerus -25.5387 -8.96986 89.4202
lradius 26.2499
lwrist -15.1021
lhand -15.046 -367.894
lfingers 7.12502
lthumb 11.1204 21.791
rfemur -5.99267 -3.23815 20.6386
rtibia 27.0998
rfoot 1.49946 37.8742
rtoes 17.3629
lfemur -16.2634 -17.0308 -3.23441
ltibia 22.9187
lfoot -4.62547 -10.228
ltoes -18.2277
